<mxfile host="app.diagrams.net" modified="2023-05-27T17:29:15.236Z" agent="Mozilla/5.0 (X11; Ubuntu; Linux x86_64; rv:109.0) Gecko/20100101 Firefox/113.0" version="21.1.5" etag="NfzDsUiD8gf64EWgwzKO" type="github">
  <diagram name="Page-1" id="44fgd6fIlYPhnCuRj_aX">
    <mxGraphModel>
      <root>
        <mxCell id="0" />
        <mxCell id="1" parent="0" />
      </root>
    </mxGraphModel>
  </diagram>
</mxfile>
